<svg width="512" height="512" viewBox="0 0 512 512" fill="none" xmlns="http://www.w3.org/2000/svg">
<g clip-path="url(#clip0_47_219)">
<circle cx="256" cy="256" r="256" fill="white"/>
<path fill-rule="evenodd" clip-rule="evenodd" d="M411.402 369.743C430.394 341.764 442.028 308.376 443.519 272.368L419.817 276.519C417.348 310.579 404.494 341.756 384.409 366.894C383.249 368.344 382.066 369.775 380.859 371.185C384.537 371.645 388.735 371.848 392.784 371.849C399.286 371.852 405.401 371.335 408.351 370.53C408.449 370.504 408.547 370.477 408.645 370.451L408.792 370.411L408.906 370.381C409.268 370.284 409.629 370.19 409.99 370.097C410.463 369.976 410.934 369.858 411.402 369.743ZM398.8 384.753C399.347 384.604 399.894 384.46 400.439 384.32C394.566 391.389 388.183 398.02 381.347 404.156C375.188 405.024 362.794 403.987 356.3 401.252C354.187 400.363 352.502 399.527 350.819 398.581C356.763 394.376 362.416 389.784 367.74 384.843C377.301 386.738 393.384 386.23 398.8 384.753ZM323.555 418.858C333.417 421.707 343.692 424.676 351.219 426.219C343.976 430.486 336.422 434.281 328.599 437.559C326.107 437.141 323.504 436.447 320.759 435.715L320.749 435.712L320.727 435.707C320.024 435.519 319.31 435.329 318.587 435.14C313.443 433.798 307.769 432.528 301.299 432.751C292.343 433.06 277.516 437.716 264.28 442.434L266.757 428.263C284.408 427.148 305.051 421.752 320.749 415.484C321.807 415.787 321.959 416.46 322.112 417.14C322.268 417.832 322.425 418.531 323.541 418.854L323.555 418.858Z" fill="black"/>
<path fill-rule="evenodd" clip-rule="evenodd" d="M241.136 427.901C242.305 428.008 243.479 428.103 244.656 428.185L248.19 448.401L247.816 448.542C246.17 449.167 244.654 449.742 243.299 450.25C242.265 450.638 241.223 451.007 240.174 451.357C221.448 449.763 203.507 445.414 186.758 438.715C203.068 438.77 222.625 436.501 239.299 428.751C239.919 428.463 240.531 428.179 241.136 427.901ZM196.737 417.442C175.507 409.16 156.425 396.58 140.56 380.77C139.748 379.961 138.945 379.143 138.15 378.318C137.214 377.346 136.291 376.362 135.379 375.367C133.466 373.28 131.607 371.143 129.804 368.959C108.796 343.521 95.3034 311.637 92.7296 276.714L69.0225 272.562C71.184 323.518 93.6576 369.211 128.547 401.741C132.128 404.912 142.287 410.932 151.299 414.252C160.799 417.752 184.799 419.252 194.799 417.752C195.425 417.658 196.072 417.554 196.737 417.442Z" fill="black"/>
<path d="M262.518 76.9991C360.698 80.2194 439.774 159.017 443.541 257.139L419.857 252.991C414.208 171.135 348.589 105.794 266.657 100.667L262.518 76.9991Z" fill="black"/>
<path d="M244.756 100.743C163.413 106.388 98.4047 171.403 92.6896 252.794L69 256.943C72.8498 159.284 151.303 80.8134 248.901 77.0381L244.756 100.743Z" fill="black"/>
<path d="M171.299 390.753C167.325 390.753 163.341 390.118 159.577 389.135C151.431 387.008 144.317 383.251 140.56 380.77C140.289 380.591 140.035 380.418 139.799 380.253C134.799 376.753 125.625 398.852 128.025 401.252C128.179 401.406 128.354 401.57 128.547 401.741C132.128 404.912 142.287 410.932 151.299 414.252C160.799 417.752 184.799 419.252 194.799 417.752C195.425 417.658 196.072 417.554 196.737 417.442C206.712 415.751 220.862 412.002 229.299 408.252C233.571 406.354 238.213 403.648 243.286 400.536C244.185 399.985 245.097 399.421 246.023 398.846C246.744 398.399 247.473 397.946 248.21 397.487C252.447 394.852 256.968 392.04 261.799 389.253C264.901 387.464 268.117 385.902 271.344 384.568C281.644 380.311 292.066 378.373 299.3 378.753C299.486 378.763 299.673 378.773 299.861 378.783C309.215 379.272 319.613 379.817 332.299 387.253C342.596 393.289 346.697 396.265 350.819 398.581C352.502 399.527 354.187 400.363 356.3 401.252C362.794 403.987 375.188 405.024 381.347 404.156C382.098 404.05 382.756 403.915 383.3 403.752C395.358 400.135 409.8 387.253 413.3 381.253C411.005 381.909 407.849 382.565 404.398 383.362C403.11 383.659 401.78 383.976 400.439 384.32C399.894 384.46 399.347 384.604 398.8 384.753C393.384 386.23 377.301 386.738 367.74 384.843C367.592 384.814 367.445 384.784 367.3 384.753C360.61 383.345 354.168 377.722 348.498 372.772C346.116 370.693 343.87 368.733 341.8 367.254C335.409 362.689 329.851 358.958 320.18 355.679C319.258 355.367 318.3 355.059 317.3 354.754C309.016 352.233 295.935 351.234 283.564 352.392C281.275 352.606 279.011 352.895 276.805 353.261C274.383 353.663 272.033 354.159 269.8 354.754C261.146 357.062 248.664 364.362 238.115 370.894C236.194 372.084 234.337 373.248 232.579 374.351C232.328 374.509 232.079 374.666 231.832 374.821C226.846 377.952 222.723 380.541 220.299 381.753C214.594 384.606 200.496 387.967 186.893 389.661C181.422 390.342 176.032 390.753 171.299 390.753Z" fill="black"/>
<path d="M239.299 428.751C222.625 436.501 203.068 438.77 186.758 438.715C175.288 438.677 165.424 437.49 159.299 436.251C164.299 441.251 189.625 453.378 195.799 454.75C208.427 457.556 224.991 456.425 240.174 451.357C241.223 451.007 242.265 450.638 243.299 450.25C244.756 449.704 246.399 449.08 248.19 448.401C249.22 448.009 250.3 447.6 251.421 447.176C254.385 446.056 257.64 444.837 261.048 443.598C262.112 443.211 263.19 442.823 264.28 442.434C277.516 437.716 292.343 433.06 301.299 432.751C307.769 432.528 313.443 433.798 318.587 435.14C319.321 435.332 320.045 435.525 320.759 435.715C323.504 436.447 326.107 437.141 328.599 437.559C331.089 437.976 333.474 438.118 335.799 437.751C345.3 436.251 346.8 435.251 360.3 427.251C358.317 427.44 355.141 427.023 351.219 426.219C341.999 424.328 332.406 418.813 320.749 415.484C310.111 412.447 299.072 411.946 294.927 411.758C294.883 411.756 294.841 411.754 294.799 411.752C287.225 411.408 280.598 411.775 265.613 417.424C260.63 419.303 254.723 421.766 247.55 424.981C245.516 425.893 243.381 426.864 241.136 427.901C240.531 428.179 239.919 428.463 239.299 428.751Z" fill="black"/>
<path fill-rule="evenodd" clip-rule="evenodd" d="M130.248 391.753C128.76 390.265 131.722 381.204 135.379 375.367C136.291 376.362 137.214 377.346 138.15 378.318C138.945 379.143 139.748 379.961 140.56 380.77C144.317 383.251 151.431 387.008 159.577 389.135C163.341 390.118 167.325 390.753 171.299 390.753C176.032 390.753 181.422 390.342 186.893 389.661C200.496 387.967 214.594 384.606 220.299 381.753C222.723 380.541 226.846 377.952 231.832 374.821C232.079 374.666 232.328 374.509 232.579 374.351C234.337 373.248 236.194 372.084 238.115 370.894C248.664 364.362 261.146 357.062 269.8 354.754C272.033 354.159 274.383 353.663 276.805 353.261C279.011 352.895 281.275 352.606 283.564 352.392C295.935 351.234 309.016 352.233 317.3 354.754C318.3 355.059 319.258 355.367 320.18 355.679C329.851 358.958 335.409 362.689 341.8 367.254C343.87 368.733 346.116 370.693 348.498 372.772C354.168 377.722 360.61 383.345 367.3 384.753C367.445 384.784 367.592 384.814 367.74 384.843C377.301 386.738 393.384 386.23 398.8 384.753C399.347 384.604 399.894 384.46 400.439 384.32C401.78 383.976 403.11 383.659 404.398 383.362C398.711 387.984 391.795 392.371 385.523 394.253C384.979 394.416 384.321 394.55 383.57 394.656C377.411 395.525 365.017 394.487 358.523 391.753C356.411 390.863 354.725 390.028 353.042 389.082C351.24 388.069 349.441 386.929 347.128 385.464C344.15 383.578 340.316 381.149 334.523 377.753C321.837 370.317 311.439 369.773 302.084 369.283L301.523 369.254C292.023 368.754 277.023 372.254 264.023 379.753C259.192 382.54 254.672 385.351 250.436 387.986C243.399 392.363 237.14 396.256 231.523 398.753C223.085 402.502 208.936 406.252 198.96 407.942C198.295 408.055 197.648 408.158 197.023 408.252C187.023 409.752 163.023 408.252 153.523 404.752C144.51 401.432 134.351 395.412 130.771 392.242C130.577 392.07 130.402 391.907 130.248 391.753Z" fill="black"/>
<path fill-rule="evenodd" clip-rule="evenodd" d="M129.945 372.583C129.448 372.086 129.448 370.744 129.804 368.959C131.607 371.143 133.466 373.28 135.379 375.367C136.291 376.362 137.214 377.346 138.15 378.318C134.779 376.336 132.012 374.439 130.468 373.071C130.274 372.9 130.099 372.737 129.945 372.583ZM186.893 389.661C190.757 389.649 194.187 389.462 196.719 389.082C197.345 388.988 197.992 388.885 198.657 388.772C208.633 387.082 222.782 383.332 231.219 379.582C236.837 377.086 243.096 373.193 250.132 368.816C254.369 366.181 258.889 363.37 263.719 360.583C270.148 356.875 277.065 354.144 283.564 352.392C281.275 352.606 279.011 352.895 276.805 353.261C274.383 353.663 272.033 354.159 269.8 354.754C261.146 357.062 248.664 364.362 238.115 370.894C236.194 372.084 234.337 373.248 232.579 374.351L231.832 374.821C226.846 377.952 222.723 380.541 220.299 381.753C214.594 384.606 200.496 387.967 186.893 389.661ZM380.859 371.185C382.066 369.775 383.249 368.344 384.409 366.894C390.346 366.824 395.771 366.326 398.497 365.583C399.044 365.434 399.591 365.289 400.136 365.15C401.477 364.806 402.806 364.489 404.094 364.191C400.638 367.001 396.728 369.723 392.784 371.849C388.735 371.848 384.537 371.645 380.859 371.185Z" fill="black"/>
<path d="M227.542 274.535C230.89 283.996 238.416 291.414 247.846 294.472L248.702 299.411L159.467 362.44H158.701V361.495L220.287 273.259L227.542 274.535Z" fill="black"/>
<path fill-rule="evenodd" clip-rule="evenodd" d="M345.435 351.213C344.064 350.048 342.748 348.978 341.497 348.084C338.968 346.278 336.57 344.602 333.996 343.034C329.445 340.26 324.343 337.82 316.996 335.584C316.138 335.323 315.228 335.078 314.272 334.85L283.774 313.308L266.549 301.142L267.751 294.268C276.858 291.106 284.111 283.851 287.405 274.65L291.495 273.931L342.7 347.294L345.435 351.213Z" fill="black"/>
<path d="M248.58 230.171L248.188 232.407C238.061 235.563 230.078 243.733 227.015 254.083L220.509 255.228L158.718 166.698L248.58 230.171Z" fill="black"/>
<path d="M353.367 167.353L292.37 254.744L287.938 253.964C284.923 243.918 277.269 235.943 267.525 232.644L266.592 227.26L352.459 166.61H353.367V167.353Z" fill="black"/>
<path fill-rule="evenodd" clip-rule="evenodd" d="M463.026 263.59L286.733 232.641L255.921 56L225.111 232.641L49.0059 263.556L48 264.567L48.8184 265.388L225.111 296.338L235.069 353.431C241.535 349.39 248.989 344.832 255.947 341.241L247.824 294.472C238.368 291.415 230.821 283.997 227.464 274.536L171.048 264.638L170.705 264.295L171.126 263.872L226.935 254.084C230.006 243.733 238.01 235.563 248.166 232.407L257.888 176.999L267.555 232.644C277.326 235.943 285.001 243.918 288.024 253.965L344.576 263.885L344.984 264.295L344.653 264.626L287.489 274.651C284.186 283.852 276.914 291.106 267.783 294.268L259.882 339.294C263.366 337.652 266.64 336.346 269.496 335.584C272.864 334.686 276.499 334.014 280.243 333.55L283.774 313.308L286.734 296.338L463.214 265.355L464 264.567L463.026 263.59ZM276.805 353.261C274.383 353.663 272.033 354.159 269.8 354.754C261.146 357.062 248.664 364.362 238.115 370.894L243.286 400.536C244.185 399.985 245.097 399.421 246.023 398.846C246.74 398.402 247.465 397.951 248.199 397.494L248.21 397.487C252.446 394.853 256.97 392.039 261.799 389.253C264.901 387.464 268.117 385.902 271.344 384.568L276.805 353.261ZM251.421 447.176L247.55 424.981C254.723 421.766 260.63 419.303 265.613 417.424L261.048 443.598C257.64 444.837 254.385 446.056 251.421 447.176Z" fill="black"/>
<path fill-rule="evenodd" clip-rule="evenodd" d="M163.073 390.529C161.921 390.105 160.751 389.637 159.577 389.135C163.341 390.118 167.325 390.753 171.299 390.753C176.032 390.753 181.422 390.342 186.893 389.661C200.496 387.967 214.594 384.606 220.299 381.753C222.722 380.542 226.849 377.95 231.832 374.821L232.579 374.351C234.337 373.248 236.194 372.084 238.115 370.894C248.664 364.362 261.146 357.062 269.8 354.754C272.033 354.159 274.383 353.663 276.805 353.261C279.011 352.895 281.275 352.606 283.564 352.392C295.935 351.234 309.016 352.233 317.3 354.754C318.3 355.059 319.258 355.367 320.18 355.679C317.22 355.353 314.383 355.204 311.635 355.06L311.074 355.031C301.574 354.531 286.573 358.031 273.573 365.53C268.743 368.317 264.223 371.128 259.986 373.764C252.95 378.14 246.691 382.033 241.073 384.53C232.636 388.279 218.487 392.029 208.511 393.719C207.846 393.832 207.199 393.935 206.573 394.029C196.573 395.529 172.573 394.029 163.073 390.529ZM333.996 343.034C337.306 344.369 340.11 345.781 342.7 347.294L345.435 351.213C344.064 350.048 342.748 348.978 341.497 348.084C338.968 346.278 336.57 344.602 333.996 343.034Z" fill="black"/>
</g>
<defs>
<clipPath id="clip0_47_219">
<rect width="512" height="512" fill="white"/>
</clipPath>
</defs>
</svg>
